<svg id="visual" viewBox="0 0 900 600" width="900" height="600" xmlns="http://www.w3.org/2000/svg" xmlns:xlink="http://www.w3.org/1999/xlink" version="1.1"><path d="M0 43L10 47C20 51 40 59 60 61C80 63 100 59 120 58C140 57 160 59 180 63C200 67 220 73 240 75C260 77 280 75 300 77C320 79 340 85 360 88C380 91 400 91 420 91C440 91 460 91 480 84C500 77 520 63 540 61C560 59 580 69 600 72C620 75 640 71 660 69C680 67 700 67 720 67C740 67 760 67 780 62C800 57 820 47 840 47C860 47 880 57 890 62L900 67L900 0L890 0C880 0 860 0 840 0C820 0 800 0 780 0C760 0 740 0 720 0C700 0 680 0 660 0C640 0 620 0 600 0C580 0 560 0 540 0C520 0 500 0 480 0C460 0 440 0 420 0C400 0 380 0 360 0C340 0 320 0 300 0C280 0 260 0 240 0C220 0 200 0 180 0C160 0 140 0 120 0C100 0 80 0 60 0C40 0 20 0 10 0L0 0Z" fill="#ffffff"></path><path d="M0 133L10 136C20 139 40 145 60 145C80 145 100 139 120 139C140 139 160 145 180 155C200 165 220 179 240 185C260 191 280 189 300 186C320 183 340 179 360 175C380 171 400 167 420 163C440 159 460 155 480 154C500 153 520 155 540 150C560 145 580 133 600 128C620 123 640 125 660 129C680 133 700 139 720 139C740 139 760 133 780 128C800 123 820 119 840 125C860 131 880 147 890 155L900 163L900 65L890 60C880 55 860 45 840 45C820 45 800 55 780 60C760 65 740 65 720 65C700 65 680 65 660 67C640 69 620 73 600 70C580 67 560 57 540 59C520 61 500 75 480 82C460 89 440 89 420 89C400 89 380 89 360 86C340 83 320 77 300 75C280 73 260 75 240 73C220 71 200 65 180 61C160 57 140 55 120 56C100 57 80 61 60 59C40 57 20 49 10 45L0 41Z" fill="#f2f5e8"></path><path d="M0 265L10 259C20 253 40 241 60 243C80 245 100 261 120 260C140 259 160 241 180 248C200 255 220 287 240 290C260 293 280 267 300 254C320 241 340 241 360 245C380 249 400 257 420 261C440 265 460 265 480 256C500 247 520 229 540 219C560 209 580 207 600 221C620 235 640 265 660 279C680 293 700 291 720 291C740 291 760 293 780 281C800 269 820 243 840 243C860 243 880 269 890 282L900 295L900 161L890 153C880 145 860 129 840 123C820 117 800 121 780 126C760 131 740 137 720 137C700 137 680 131 660 127C640 123 620 121 600 126C580 131 560 143 540 148C520 153 500 151 480 152C460 153 440 157 420 161C400 165 380 169 360 173C340 177 320 181 300 184C280 187 260 189 240 183C220 177 200 163 180 153C160 143 140 137 120 137C100 137 80 143 60 143C40 143 20 137 10 134L0 131Z" fill="#e4ebd1"></path><path d="M0 493L10 490C20 487 40 481 60 477C80 473 100 471 120 466C140 461 160 453 180 461C200 469 220 493 240 496C260 499 280 481 300 471C320 461 340 459 360 450C380 441 400 425 420 425C440 425 460 441 480 425C500 409 520 361 540 355C560 349 580 385 600 399C620 413 640 405 660 413C680 421 700 445 720 461C740 477 760 485 780 479C800 473 820 453 840 456C860 459 880 485 890 498L900 511L900 293L890 280C880 267 860 241 840 241C820 241 800 267 780 279C760 291 740 289 720 289C700 289 680 291 660 277C640 263 620 233 600 219C580 205 560 207 540 217C520 227 500 245 480 254C460 263 440 263 420 259C400 255 380 247 360 243C340 239 320 239 300 252C280 265 260 291 240 288C220 285 200 253 180 246C160 239 140 257 120 258C100 259 80 243 60 241C40 239 20 251 10 257L0 263Z" fill="#d7e1ba"></path><path d="M0 601L10 601C20 601 40 601 60 601C80 601 100 601 120 601C140 601 160 601 180 601C200 601 220 601 240 601C260 601 280 601 300 601C320 601 340 601 360 601C380 601 400 601 420 601C440 601 460 601 480 601C500 601 520 601 540 601C560 601 580 601 600 601C620 601 640 601 660 601C680 601 700 601 720 601C740 601 760 601 780 601C800 601 820 601 840 601C860 601 880 601 890 601L900 601L900 509L890 496C880 483 860 457 840 454C820 451 800 471 780 477C760 483 740 475 720 459C700 443 680 419 660 411C640 403 620 411 600 397C580 383 560 347 540 353C520 359 500 407 480 423C460 439 440 423 420 423C400 423 380 439 360 448C340 457 320 459 300 469C280 479 260 497 240 494C220 491 200 467 180 459C160 451 140 459 120 464C100 469 80 471 60 475C40 479 20 485 10 488L0 491Z" fill="#c9d7a4"></path></svg>